# xmcd CD database file
#
# Track frame offsets:
#	150
#	19214
#	41220
#	61835
#	78723
#	99598
#	119521
#	138811
#	156093
#	177212
#	197832
#
# Disc length: 2907 seconds
#
# Revision: 0
# Processed by: cddbd v1.5.2PL0 Copyright (c) Steve Scherf et al.
# Submitted via: CDex 1.70beta2
#
DISCID=940b590b
DTITLE=Expresión Latina - 9 días de rumba
DYEAR=2005
DGENRE=Salsa
TTITLE0=Caridad
TTITLE1=Dime que hacer
TTITLE2=Que sera?
TTITLE3=La banda
TTITLE4=Diferente a mi
TTITLE5=Descarga
TTITLE6=Como llegar a tu corazón
TTITLE7=Bailando Boogalo
TTITLE8=Cumbia con Salsa
TTITLE9=De que sirvió?
TTITLE10=Loco arrebatao
EXTD=YEAR: 2005
EXTT0=
EXTT1=
EXTT2=
EXTT3=
EXTT4=
EXTT5=
EXTT6=
EXTT7=
EXTT8=
EXTT9=
EXTT10=
PLAYORDER=
